# xmcd
#
# Track frame offsets: 
#        150
#        13935
#        28317
#        43497
#        56202
#        71297
#        92142
#        109237
#        121055
#        138345
#
# Disc length: 2059 seconds
#
# Revision: 4
# Processed by: cddbd v1.5.2PL0 Copyright (c) Steve Scherf et al.
# Submitted via: ExactAudioCopy v0.99pb5
#
DISCID=9208090a
DTITLE=The Highwaymen - Highwayman
DYEAR=1985
DGENRE=Country
TTITLE0=Highwayman
TTITLE1=The Last Cowboy Song
TTITLE2=Jim, I Wore a Tie Today
TTITLE3=Big River
TTITLE4=Committed to Parkview
TTITLE5=Desperados Waiting for a Train
TTITLE6=Deportee (Plane Wreck at Los Gatos)
TTITLE7=Welfare Line
TTITLE8=Against the Wind
TTITLE9=The Twentieth Century Is Almost Over
EXTD=Waylon Jennings, Willie Nelson, Johnny Cash and Kris Kristofferso
EXTD=n
EXTT0=
EXTT1=
EXTT2=
EXTT3=
EXTT4=
EXTT5=
EXTT6=
EXTT7=
EXTT8=
EXTT9=
PLAYORDER=
